<svg xmlns="http://www.w3.org/2000/svg" xmlns:xlink="http://www.w3.org/1999/xlink" version="1.1" id="Layer_1" x="0px" y="0px" enable-background="new 0 0 500 500" xml:space="preserve" viewBox="188.54 107.99 124.75 126.65">

<path fill="#C261E9" opacity="1.000000" stroke="none" d=" M260.716736,194.851364   C244.892212,197.960907 232.800217,208.052505 228.911621,225.780533   C227.273315,233.249527 222.024872,236.412018 215.074905,233.667023   C214.139175,233.297424 213.300232,230.646194 213.643417,229.385452   C217.739120,214.338821 222.034927,199.346146 226.343384,184.358047   C230.913559,168.459518 235.601608,152.594757 240.129745,136.684387   C241.286102,132.621262 243.030136,130.649872 247.895981,130.885056   C259.422760,131.442154 259.565155,131.069733 262.816803,141.851151   C266.335205,153.517136 269.745239,165.221893 272.847473,177.003220   C273.675201,180.146545 274.698456,179.730408 277.237335,179.176254   C290.920502,176.189651 297.988068,164.840561 298.088257,156.310684   C298.274597,140.442215 291.355408,129.234955 278.141937,124.970528   C274.490326,123.792038 270.542145,123.363098 266.691559,123.009720   C260.784607,122.467613 254.845215,122.053650 248.917847,122.030205   C244.173233,122.011436 239.426025,122.654610 234.216904,123.038101   C230.293503,136.659317 226.371994,150.366104 222.395248,164.056854   C217.496475,180.921875 212.564728,197.777344 207.618958,214.628647   C206.106873,219.780640 204.316650,224.858902 203.012314,230.060822   C202.294403,232.923935 201.130219,233.988297 198.044357,233.968674   C187.348770,233.900635 187.217789,233.996246 190.225037,223.757172   C196.029953,203.992691 202.080185,184.300217 207.871918,164.531952   C212.708984,148.022263 217.507538,131.496216 221.922180,114.870941   C223.252640,109.860474 225.651993,107.835312 230.740631,107.999977   C245.708557,108.484344 260.752045,107.977539 275.635590,109.312408   C288.220276,110.441093 298.520508,117.341141 305.256897,128.074646   C314.247345,142.399811 316.529724,157.713928 307.775879,173.080002   C302.286285,182.716141 293.678162,189.011032 282.923096,191.802063   C278.812927,192.868683 277.637634,194.577805 278.890198,198.478790   C280.029816,202.027832 280.974304,205.642639 281.895355,209.256348   C282.108154,210.091263 281.972107,211.806549 281.833069,211.824142   C278.190582,212.285095 274.525238,212.778671 270.867126,212.755020   C269.932709,212.748993 268.488770,211.160080 268.173065,210.045227   C266.941132,205.694901 265.964905,201.263016 265.100616,196.821182   C264.591553,194.205078 263.603302,193.214371 260.716736,194.851364  M258.440765,180.928009   C258.536926,179.683701 258.986542,178.340225 258.669983,177.211685   C257.011749,171.300461 255.119812,165.455322 253.391663,159.562988   C252.567307,156.752213 251.925964,153.887756 251.201721,151.047623   C250.876724,151.110428 250.551727,151.173233 250.226730,151.236038   C246.854233,163.083939 243.481735,174.931854 240.100433,186.810654   C246.231094,184.803223 251.920181,182.940399 258.440765,180.928009  z" data-index="1" style="visibility: visible; opacity: 1; fill: rgb(201, 243, 29);"/>

</svg>